<svg width="20" height="20" viewBox="0 0 20 20" fill="none" xmlns="http://www.w3.org/2000/svg">
<path fill-rule="evenodd" clip-rule="evenodd" d="M10.9808 16.1978C10.9808 16.1978 11.3418 16.1538 11.5267 15.9363C11.6959 15.7369 11.69 15.3608 11.69 15.3608C11.69 15.3608 11.6675 13.6044 12.4119 13.345C13.1456 13.09 14.0876 15.0436 15.0873 15.7948C15.8425 16.3628 16.4157 16.2385 16.4157 16.2385L19.0872 16.1978C19.0872 16.1978 20.4841 16.1034 19.8218 14.9C19.767 14.8014 19.4354 14.0094 17.8361 12.3827C16.1604 10.6798 16.3854 10.9552 18.4024 8.00928C19.6311 6.21533 20.1221 5.12011 19.9685 4.6518C19.8228 4.20385 18.9189 4.3228 18.9189 4.3228L15.9119 4.34316C15.9119 4.34316 15.6889 4.30994 15.5236 4.41818C15.3622 4.52427 15.2575 4.77182 15.2575 4.77182C15.2575 4.77182 14.7821 6.15961 14.1473 7.34057C12.8081 9.83108 12.273 9.96289 12.0539 9.80858C11.5443 9.44743 11.6714 8.3597 11.6714 7.58705C11.6714 5.17262 12.006 4.16634 11.0209 3.90593C10.6942 3.81912 10.4536 3.76233 9.61722 3.75268C8.54413 3.74089 7.63636 3.75697 7.12183 4.03238C6.77946 4.21563 6.51534 4.625 6.67675 4.64858C6.87532 4.67752 7.32529 4.78147 7.56398 5.13725C7.87211 5.59699 7.86135 6.62792 7.86135 6.62792C7.86135 6.62792 8.0384 9.46993 7.44757 9.82251C7.04259 10.0647 6.48698 9.57067 5.29259 7.31056C4.68122 6.15318 4.21951 4.87363 4.21951 4.87363C4.21951 4.87363 4.13049 4.63465 3.97104 4.50605C3.77834 4.35066 3.50933 4.30244 3.50933 4.30244L0.652008 4.3228C0.652008 4.3228 0.222578 4.33566 0.0650879 4.54034C-0.0747948 4.72145 0.0543277 5.0976 0.0543277 5.0976C0.0543277 5.0976 2.29147 10.832 4.82501 13.7222C7.14824 16.3714 9.78547 16.1978 9.78547 16.1978H10.9808Z" fill="#BDB9C0"/>
</svg>
