<svg width="20" height="20" viewBox="0 0 20 20" fill="none" xmlns="http://www.w3.org/2000/svg">
<path d="M13.2103 3H6.78967C4.70001 3 3 4.70001 3 6.78967V13.2104C3 15.3 4.70001 17 6.78967 17H13.2104C15.3 17 17 15.3 17 13.2104V6.78967C17 4.70001 15.3 3 13.2103 3V3ZM9.99999 13.828C7.88918 13.828 6.17198 12.1108 6.17198 9.99999C6.17198 7.88918 7.88918 6.17198 9.99999 6.17198C12.1108 6.17198 13.828 7.88918 13.828 9.99999C13.828 12.1108 12.1108 13.828 9.99999 13.828ZM13.9195 7.07475C13.2958 7.07475 12.7884 6.56739 12.7884 5.94361C12.7884 5.31984 13.2958 4.81237 13.9195 4.81237C14.5433 4.81237 15.0508 5.31984 15.0508 5.94361C15.0508 6.56739 14.5433 7.07475 13.9195 7.07475Z" fill="#BDB9C0"/>
<path d="M9.99946 6.99243C8.34132 6.99243 6.99219 8.34146 6.99219 9.9997C6.99219 11.6578 8.34132 13.007 9.99946 13.007C11.6577 13.007 13.0067 11.6578 13.0067 9.9997C13.0067 8.34146 11.6577 6.99243 9.99946 6.99243Z" fill="#BDB9C0"/>
<path d="M13.9198 5.63354C13.7487 5.63354 13.6094 5.77283 13.6094 5.94394C13.6094 6.11505 13.7487 6.25433 13.9198 6.25433C14.091 6.25433 14.2303 6.11516 14.2303 5.94394C14.2303 5.77272 14.091 5.63354 13.9198 5.63354Z" fill="#BDB9C0"/>
</svg>
