<svg width="20" height="20" viewBox="0 0 20 20" fill="none" xmlns="http://www.w3.org/2000/svg">
<path fill-rule="evenodd" clip-rule="evenodd" d="M14.3138 16.885C15.2857 17.3102 15.6501 16.4193 15.6501 16.4193L18.2214 3.50192C18.2012 2.6313 17.0269 3.15772 17.0269 3.15772L2.63144 8.80656C2.63144 8.80656 1.94306 9.04952 2.0038 9.47471C2.06454 9.89989 2.6112 10.1024 2.6112 10.1024L6.23537 11.3172C6.23537 11.3172 7.32869 14.9008 7.5514 15.5892C7.75387 16.2574 7.93609 16.2776 7.93609 16.2776C8.13856 16.3586 8.32078 16.2169 8.32078 16.2169L10.6694 14.091L14.3138 16.885ZM14.9415 5.78964C14.9415 5.78964 15.4477 5.48594 15.4275 5.78964C15.4275 5.78964 15.5085 5.83014 15.2452 6.11359C15.0023 6.35655 9.27246 11.4992 8.50308 12.1876C8.44234 12.2281 8.40185 12.2889 8.40185 12.3698L8.17913 14.273C8.13864 14.4755 7.87543 14.4957 7.81469 14.3135L6.86309 11.1955C6.8226 11.074 6.86309 10.9323 6.98457 10.8513L14.9415 5.78964Z" fill="#BDB9C0"/>
</svg>
