<svg width="162" height="18" viewBox="0 0 162 18" fill="none" xmlns="http://www.w3.org/2000/svg">
<path fill-rule="evenodd" clip-rule="evenodd" d="M49.9413 9.0006C49.9413 5.00801 53.2934 1.69948 57.847 0.457027C61.803 -0.491803 65.9962 0.0490978 69.535 1.96472L67.7106 5.00802C64.0025 3.29093 59.7456 3.4724 57.3279 4.86841C56.5474 5.29566 55.898 5.90611 55.443 6.64015C54.9881 7.37418 54.7432 8.20671 54.7322 9.05644C54.7322 11.9462 57.6987 14.1519 61.3623 14.3054C63.5986 14.456 65.8313 13.9695 67.7699 12.9094L69.4757 16.1342C67.0251 17.4918 64.201 18.1333 61.3623 17.977C55.0585 17.977 49.9413 13.9425 49.9413 9.0006ZM36.4874 0.0244012C30.1836 0.0244012 25.0664 4.0449 25.0664 9.00073C25.0664 13.9566 30.1836 17.9492 36.4874 17.9492C42.7912 17.9492 47.8936 13.9147 47.8936 8.97282C47.8936 4.03094 42.7764 0.0244012 36.4874 0.0244012ZM36.4874 14.2497C32.8238 14.2497 29.8573 11.8905 29.8573 9.00073C29.8573 6.11099 32.8238 3.75175 36.4874 3.75175C40.151 3.75175 43.1027 6.09703 43.1027 9.00073C43.1027 11.9044 40.1362 14.2497 36.4874 14.2497ZM72.2045 0.931709V17.9211L88.7575 7.78612V17.0137H93.4891V0.0801424L76.9805 10.1733V0.931709H72.2045ZM22.8272 17.0137V0.107983L11.4507 7.91167L11.3617 7.85583L0 0.0940199V17.0137H4.77605V8.24672L11.421 12.714L18.0659 8.24672V17.0137H22.8272ZM96.3069 0.931872H115.723V4.4917H101.083V17.0139H96.3069V0.931872ZM138.61 6.6695C138.635 5.89431 138.487 5.12289 138.177 4.40437C137.867 3.68586 137.401 3.03601 136.809 2.49623C136.218 1.95646 135.513 1.53859 134.74 1.26926C133.968 0.999929 133.144 0.885036 132.321 0.931901H117.281V17.0139H122.057V12.3652H132.321C133.14 12.4117 133.96 12.298 134.73 12.0312C135.499 11.7643 136.202 11.3502 136.793 10.815C137.384 10.2798 137.85 9.63508 138.163 8.92156C138.476 8.20804 138.628 7.44122 138.61 6.6695ZM122.057 8.90312V4.44985H130.957C132.87 4.44985 133.79 5.13389 133.79 6.55782C133.792 6.89078 133.719 7.22042 133.576 7.52483C133.433 7.82924 133.222 8.10143 132.958 8.32329C132.695 8.54516 132.384 8.71162 132.046 8.81159C131.709 8.91157 131.353 8.94276 131.001 8.90312H122.057ZM156.155 17.0278L154.672 15.1572H142.391L140.908 17.0278H135.227L148.65 0.275699L161.999 17.0278H156.155ZM152.329 12.058L148.502 6.94863L144.645 12.058H152.329Z" fill="#D21530"/>
</svg>
